<svg xmlns="http://www.w3.org/2000/svg" xmlns:xlink="http://www.w3.org/1999/xlink" width="500" zoomAndPan="magnify" viewBox="0 0 375 374.999991" height="500" preserveAspectRatio="xMidYMid meet" version="1.0"><defs><g/><clipPath id="ef4c2e3657"><path d="M 0 120.933594 L 375 120.933594 L 375 148.640625 L 0 148.640625 Z M 0 120.933594 " clip-rule="nonzero"/></clipPath><clipPath id="dfd9f79df2"><path d="M 0 216.761719 L 375 216.761719 L 375 244.472656 L 0 244.472656 Z M 0 216.761719 " clip-rule="nonzero"/></clipPath><clipPath id="766087a494"><path d="M 0 120.933594 L 19.457031 120.933594 L 19.457031 244.472656 L 0 244.472656 Z M 0 120.933594 " clip-rule="nonzero"/></clipPath><clipPath id="b8b5682da4"><path d="M 356.402344 120.933594 L 375 120.933594 L 375 244.472656 L 356.402344 244.472656 Z M 356.402344 120.933594 " clip-rule="nonzero"/></clipPath></defs><g fill="#ffffff" fill-opacity="1"><g transform="translate(18.609378, 202.124987)"><g><path d="M 20.796875 -48.875 L 20.796875 -33.5625 L 32.90625 -48.875 L 54.546875 -48.875 L 34.28125 -23.78125 L 55.859375 9.78125 L 35.125 9.78125 L 22.8125 -9.578125 L 20.796875 -7.03125 L 20.796875 9.78125 L 3.265625 9.78125 L 3.265625 -48.875 Z M -1.953125 -54.09375 L -1.953125 14.984375 L 58.984375 14.984375 L 58.984375 -54.09375 Z M -1.953125 -54.09375 "/></g></g></g><g fill="#ffffff" fill-opacity="1"><g transform="translate(75.631393, 202.124987)"><g><path d="M 43.734375 -27.5625 L 43.734375 -11.671875 L 20.796875 -11.671875 L 20.796875 -6.1875 L 45.6875 -6.1875 L 45.6875 9.78125 L 3.265625 9.78125 L 3.265625 -48.875 L 44.578125 -48.875 L 44.578125 -32.90625 L 20.796875 -32.90625 L 20.796875 -27.5625 Z M -1.953125 -54.09375 L -1.953125 14.984375 L 50.1875 14.984375 L 50.1875 -54.09375 Z M -1.953125 -54.09375 "/></g></g></g><g fill="#ffffff" fill-opacity="1"><g transform="translate(123.855728, 202.124987)"><g><path d="M 3.265625 -48.875 L 20.796875 -48.875 L 20.796875 -6.1875 L 45.6875 -6.1875 L 45.6875 9.78125 L 3.265625 9.78125 Z M -1.953125 -54.09375 L -1.953125 14.984375 L 50.1875 14.984375 L 50.1875 -54.09375 Z M -1.953125 -54.09375 "/></g></g></g><g fill="#ffffff" fill-opacity="1"><g transform="translate(172.080064, 202.124987)"><g><path d="M 3.265625 -48.875 L 20.796875 -48.875 L 20.796875 -6.1875 L 45.6875 -6.1875 L 45.6875 9.78125 L 3.265625 9.78125 Z M -1.953125 -54.09375 L -1.953125 14.984375 L 50.1875 14.984375 L 50.1875 -54.09375 Z M -1.953125 -54.09375 "/></g></g></g><g fill="#ffffff" fill-opacity="1"><g transform="translate(220.304388, 202.124987)"><g><path d="M 19.21875 -48.875 L 38.125 -48.875 L 56.046875 9.78125 L 37.734375 9.78125 L 35.78125 2.21875 L 21.5 2.21875 L 19.609375 9.78125 L 1.296875 9.78125 Z M 28.671875 -25.546875 L 25.421875 -12.90625 L 31.9375 -12.90625 Z M -1.953125 -54.09375 L -1.953125 14.984375 L 59.3125 14.984375 L 59.3125 -54.09375 Z M -1.953125 -54.09375 "/></g></g></g><g fill="#ffffff" fill-opacity="1"><g transform="translate(277.652238, 202.124987)"><g><path d="M 3.265625 -48.875 L 25.484375 -48.875 C 28.910156 -48.875 32.125 -48.550781 35.125 -47.90625 C 36.644531 -47.59375 38.054688 -47.144531 39.359375 -46.5625 C 40.660156 -45.976562 41.859375 -45.296875 42.953125 -44.515625 C 45.078125 -42.898438 46.789062 -40.726562 48.09375 -38 C 49.351562 -35.125 49.984375 -31.625 49.984375 -27.5 C 49.984375 -23.195312 49.351562 -19.59375 48.09375 -16.6875 C 46.789062 -13.726562 44.769531 -11.425781 42.03125 -9.78125 L 52.59375 9.78125 L 31.875 9.78125 L 23.984375 -6.25 L 20.796875 -6.25 L 20.796875 9.78125 L 3.265625 9.78125 Z M 23.921875 -32.984375 L 20.796875 -32.984375 L 20.796875 -22.28125 L 23.921875 -22.28125 C 27.003906 -22.28125 29.21875 -22.628906 30.5625 -23.328125 C 31.914062 -24.023438 32.59375 -25.4375 32.59375 -27.5625 C 32.59375 -28.78125 32.394531 -29.78125 32 -30.5625 C 31.476562 -31.300781 30.890625 -31.84375 30.234375 -32.1875 C 29.546875 -32.5 28.632812 -32.71875 27.5 -32.84375 C 26.9375 -32.882812 26.359375 -32.914062 25.765625 -32.9375 C 25.179688 -32.96875 24.566406 -32.984375 23.921875 -32.984375 Z M -1.953125 -54.09375 L -1.953125 14.984375 L 55.390625 14.984375 L 55.390625 -54.09375 Z M -1.953125 -54.09375 "/></g></g></g><g fill="#ffffff" fill-opacity="1"><g transform="translate(331.090009, 202.124987)"><g><path d="M 3.90625 -48.875 L 21.375 -48.875 L 21.375 9.78125 L 3.90625 9.78125 Z M -1.953125 -54.09375 L -1.953125 14.984375 L 27.234375 14.984375 L 27.234375 -54.09375 Z M -1.953125 -54.09375 "/></g></g></g><g fill="#000000" fill-opacity="1"><g transform="translate(18.609378, 202.124987)"><g><path d="M 20.796875 -48.875 L 20.796875 -33.5625 L 32.90625 -48.875 L 54.546875 -48.875 L 34.28125 -23.78125 L 55.859375 9.78125 L 35.125 9.78125 L 22.8125 -9.578125 L 20.796875 -7.03125 L 20.796875 9.78125 L 3.265625 9.78125 L 3.265625 -48.875 Z M -1.953125 -54.09375 L -1.953125 14.984375 L 58.984375 14.984375 L 58.984375 -54.09375 Z M -1.953125 -54.09375 "/></g></g></g><g fill="#000000" fill-opacity="1"><g transform="translate(75.631393, 202.124987)"><g><path d="M 43.734375 -27.5625 L 43.734375 -11.671875 L 20.796875 -11.671875 L 20.796875 -6.1875 L 45.6875 -6.1875 L 45.6875 9.78125 L 3.265625 9.78125 L 3.265625 -48.875 L 44.578125 -48.875 L 44.578125 -32.90625 L 20.796875 -32.90625 L 20.796875 -27.5625 Z M -1.953125 -54.09375 L -1.953125 14.984375 L 50.1875 14.984375 L 50.1875 -54.09375 Z M -1.953125 -54.09375 "/></g></g></g><g fill="#000000" fill-opacity="1"><g transform="translate(123.855728, 202.124987)"><g><path d="M 3.265625 -48.875 L 20.796875 -48.875 L 20.796875 -6.1875 L 45.6875 -6.1875 L 45.6875 9.78125 L 3.265625 9.78125 Z M -1.953125 -54.09375 L -1.953125 14.984375 L 50.1875 14.984375 L 50.1875 -54.09375 Z M -1.953125 -54.09375 "/></g></g></g><g fill="#000000" fill-opacity="1"><g transform="translate(172.080064, 202.124987)"><g><path d="M 3.265625 -48.875 L 20.796875 -48.875 L 20.796875 -6.1875 L 45.6875 -6.1875 L 45.6875 9.78125 L 3.265625 9.78125 Z M -1.953125 -54.09375 L -1.953125 14.984375 L 50.1875 14.984375 L 50.1875 -54.09375 Z M -1.953125 -54.09375 "/></g></g></g><g fill="#000000" fill-opacity="1"><g transform="translate(220.304388, 202.124987)"><g><path d="M 19.21875 -48.875 L 38.125 -48.875 L 56.046875 9.78125 L 37.734375 9.78125 L 35.78125 2.21875 L 21.5 2.21875 L 19.609375 9.78125 L 1.296875 9.78125 Z M 28.671875 -25.546875 L 25.421875 -12.90625 L 31.9375 -12.90625 Z M -1.953125 -54.09375 L -1.953125 14.984375 L 59.3125 14.984375 L 59.3125 -54.09375 Z M -1.953125 -54.09375 "/></g></g></g><g fill="#000000" fill-opacity="1"><g transform="translate(277.652238, 202.124987)"><g><path d="M 3.265625 -48.875 L 25.484375 -48.875 C 28.910156 -48.875 32.125 -48.550781 35.125 -47.90625 C 36.644531 -47.59375 38.054688 -47.144531 39.359375 -46.5625 C 40.660156 -45.976562 41.859375 -45.296875 42.953125 -44.515625 C 45.078125 -42.898438 46.789062 -40.726562 48.09375 -38 C 49.351562 -35.125 49.984375 -31.625 49.984375 -27.5 C 49.984375 -23.195312 49.351562 -19.59375 48.09375 -16.6875 C 46.789062 -13.726562 44.769531 -11.425781 42.03125 -9.78125 L 52.59375 9.78125 L 31.875 9.78125 L 23.984375 -6.25 L 20.796875 -6.25 L 20.796875 9.78125 L 3.265625 9.78125 Z M 23.921875 -32.984375 L 20.796875 -32.984375 L 20.796875 -22.28125 L 23.921875 -22.28125 C 27.003906 -22.28125 29.21875 -22.628906 30.5625 -23.328125 C 31.914062 -24.023438 32.59375 -25.4375 32.59375 -27.5625 C 32.59375 -28.78125 32.394531 -29.78125 32 -30.5625 C 31.476562 -31.300781 30.890625 -31.84375 30.234375 -32.1875 C 29.546875 -32.5 28.632812 -32.71875 27.5 -32.84375 C 26.9375 -32.882812 26.359375 -32.914062 25.765625 -32.9375 C 25.179688 -32.96875 24.566406 -32.984375 23.921875 -32.984375 Z M -1.953125 -54.09375 L -1.953125 14.984375 L 55.390625 14.984375 L 55.390625 -54.09375 Z M -1.953125 -54.09375 "/></g></g></g><g fill="#000000" fill-opacity="1"><g transform="translate(331.090009, 202.124987)"><g><path d="M 3.90625 -48.875 L 21.375 -48.875 L 21.375 9.78125 L 3.90625 9.78125 Z M -1.953125 -54.09375 L -1.953125 14.984375 L 27.234375 14.984375 L 27.234375 -54.09375 Z M -1.953125 -54.09375 "/></g></g></g><g clip-path="url(#ef4c2e3657)"><path fill="#000000" d="M 0 120.933594 L 374.953125 120.933594 L 374.953125 148.640625 L 0 148.640625 Z M 0 120.933594 " fill-opacity="1" fill-rule="nonzero"/></g><g clip-path="url(#dfd9f79df2)"><path fill="#000000" d="M 0 216.761719 L 374.953125 216.761719 L 374.953125 244.472656 L 0 244.472656 Z M 0 216.761719 " fill-opacity="1" fill-rule="nonzero"/></g><g clip-path="url(#766087a494)"><path fill="#000000" d="M 0 120.933594 L 19.457031 120.933594 L 19.457031 244.449219 L 0 244.449219 Z M 0 120.933594 " fill-opacity="1" fill-rule="nonzero"/></g><g clip-path="url(#b8b5682da4)"><path fill="#000000" d="M 356.402344 120.933594 L 375.859375 120.933594 L 375.859375 244.449219 L 356.402344 244.449219 Z M 356.402344 120.933594 " fill-opacity="1" fill-rule="nonzero"/></g></svg>